<svg width="410" height="281" viewBox="0 0 410 281" fill="none" xmlns="http://www.w3.org/2000/svg">
<path d="M0.876221 151.175H116.755C116.755 151.175 109.2 138.762 88.4574 143.241C88.4574 143.241 84.4881 126.221 64.1293 126.221C46.4594 126.221 41.4658 143.241 41.4658 143.241C41.4658 143.241 28.5334 133.899 18.162 147.464C18.162 147.464 3.43708 143.113 0.876221 151.175Z" fill="#E7EDF7"/>
<path d="M280.677 45.0888H396.555C396.555 45.0888 389.001 32.6757 368.258 37.1547C368.258 37.1547 364.289 20.1348 343.93 20.1348C326.26 20.1348 321.266 37.1547 321.266 37.1547C321.266 37.1547 308.334 27.8129 297.963 41.3777C297.963 41.3777 283.238 36.8987 280.677 45.0888Z" fill="#E7EDF7"/>
<path d="M95.783 63.1307C95.0147 59.4195 93.3501 55.9644 91.3015 53.0211L95.1427 47.5184L92.838 45.215L91.8136 44.1912L89.5089 41.8878L83.7469 45.8548C80.6739 43.9353 77.2168 42.5276 73.5035 42.0157L72.3511 35.3613H69.022H67.6136H64.1564L62.876 42.3996C59.1627 43.1675 55.8336 44.7031 52.8886 46.8786L47.3828 43.0395L45.078 45.3429L44.0537 46.3667L41.7489 48.6701L45.7182 54.4287C43.7976 57.5 42.3891 60.9552 41.877 64.7943L35.2188 65.946V69.2732V70.6808V74.008L42.1331 75.2877C42.9013 78.9988 44.5659 82.454 46.6145 85.3973L42.7733 90.9L45.078 93.2034L46.1024 94.2272L48.4071 96.5306L54.1691 92.5636C57.2421 94.4831 60.6992 95.8908 64.4125 96.4026L65.5649 103.057H68.894H70.5585H73.8876L75.1681 96.0187C78.8813 95.2509 82.2104 93.7153 85.1554 91.5398L90.6612 95.3789L92.966 93.0754L93.9904 92.0517L96.2951 89.7482L92.3258 83.9896C94.2464 80.9184 95.6549 77.4632 96.1671 73.7521L102.825 72.6004V69.2732V67.8655V64.5383L95.783 63.1307ZM69.022 85.1414C60.1871 85.1414 53.0167 77.9751 53.0167 69.1452C53.0167 60.3153 60.1871 53.1491 69.022 53.1491C77.857 53.1491 85.0274 60.3153 85.0274 69.1452C85.0274 77.9751 77.857 85.1414 69.022 85.1414Z" fill="#E7EDF7"/>
<path d="M387.72 136.798C387.08 133.983 385.928 131.424 384.263 129.248L387.08 125.153L385.288 123.362L384.519 122.594L382.727 120.802L378.373 123.874C376.069 122.338 373.508 121.442 370.691 120.93L369.794 115.939H367.362H366.337H363.904L363.008 121.186C360.191 121.826 357.758 122.978 355.454 124.513L351.356 121.698L349.564 123.49L348.795 124.257L347.003 126.049L350.076 130.4C348.539 132.703 347.643 135.263 347.131 138.078L342.137 138.974V141.405V142.429V144.86L347.387 145.756C348.027 148.572 349.18 151.131 350.844 153.306L348.027 157.401L349.82 159.193L350.588 159.961L352.381 161.752L356.734 158.681C359.039 160.217 361.6 161.113 364.417 161.624L365.313 166.615H367.746H368.77H371.203L372.099 161.369C374.916 160.729 377.349 159.577 379.654 158.041L383.751 160.857L385.544 159.065L386.312 158.297L388.105 156.506L385.032 152.155C386.568 149.851 387.464 147.292 387.976 144.477L392.97 143.581V141.149V140.126V137.694L387.72 136.798ZM367.618 153.178C360.959 153.178 355.582 147.804 355.582 141.149C355.582 134.495 360.959 129.12 367.618 129.12C374.276 129.12 379.654 134.495 379.654 141.149C379.654 147.932 374.276 153.178 367.618 153.178Z" fill="#E7EDF7"/>
<path d="M124.849 37.8795C124.465 35.96 123.568 34.1684 122.416 32.6328L124.465 29.6895L123.184 28.4098L122.672 27.8979L121.392 26.6182L118.319 28.7937C116.654 27.7699 114.861 27.0021 112.941 26.7462L112.3 23.291H110.508H109.74H107.947L107.307 27.0021C105.386 27.386 103.594 28.2818 102.057 29.4335L99.1121 27.386L97.8317 28.6657L97.3195 29.1776L96.0391 30.4573L98.2158 33.5286C97.1915 35.1922 96.4232 36.9837 96.1671 38.9033L92.71 39.5431V41.3347V42.1025V43.8941L96.4232 44.5339C96.8073 46.4534 97.7036 48.245 98.856 49.7806L96.9354 52.468L98.2158 53.7477L98.728 54.2596L100.008 55.5393L103.081 53.3638C104.746 54.3875 106.539 55.1554 108.459 55.4113L108.971 58.8665H110.764H111.532H113.325L113.965 55.1554C115.886 54.7714 117.678 53.8757 119.215 52.7239L122.16 54.7714L123.44 53.4918L123.952 52.9799L125.233 51.7002L123.056 48.6289C124.08 46.9653 124.849 45.1738 125.105 43.2542L128.562 42.6144V40.9508V40.183V38.3914L124.849 37.8795ZM110.636 49.5247C106.026 49.5247 102.185 45.8136 102.185 41.0787C102.185 36.4718 105.898 32.6328 110.636 32.6328C115.374 32.6328 119.087 36.3439 119.087 41.0787C119.087 45.6856 115.374 49.5247 110.636 49.5247Z" fill="#E7EDF7"/>
<path d="M230.868 232.393H197.193V263.233H230.868V232.393Z" fill="#A7B2C6"/>
<path d="M241.88 261.824H186.565C185.029 261.824 183.749 263.104 183.749 264.64C183.749 266.175 185.029 267.455 186.565 267.455H241.88C243.416 267.455 244.697 266.175 244.697 264.64C244.697 263.104 243.416 261.824 241.88 261.824Z" fill="#B9C6DA"/>
<path d="M350.844 251.843H77.345C74.528 251.843 72.3513 249.54 72.3513 246.852V75.3736C72.3513 72.5583 74.6561 70.3828 77.345 70.3828H350.844C353.661 70.3828 355.838 72.6863 355.838 75.3736V246.852C355.966 249.54 353.661 251.843 350.844 251.843Z" fill="#B9C6DA"/>
<path d="M79.7779 246.468C79.1377 246.468 78.6255 245.956 78.6255 245.316V76.7806C78.6255 76.1408 79.1377 75.6289 79.7779 75.6289H348.54C349.18 75.6289 349.692 76.1408 349.692 76.7806V245.316C349.692 245.956 349.18 246.468 348.54 246.468H79.7779Z" fill="#D9E3F1"/>
<path d="M158.524 99.8164H99.8806V158.426H158.524V99.8164Z" fill="white"/>
<path d="M323.827 99.8164H168.383V158.426H323.827V99.8164Z" fill="white"/>
<path d="M323.827 164.568H168.383V172.758H323.827V164.568Z" fill="white"/>
<path d="M323.827 178.518H168.383V186.708H323.827V178.518Z" fill="white"/>
<path d="M158.524 164.568H99.8806V172.758H158.524V164.568Z" fill="white"/>
<path d="M158.524 178.518H99.8806V186.708H158.524V178.518Z" fill="white"/>
<path d="M355.71 201.551H72.3513V222.154H355.71V201.551Z" fill="#BEB082"/>
<path d="M93.8625 201.551L80.9302 222.154H72.3513V221.898L85.0276 201.551H93.8625Z" fill="#192231"/>
<path d="M113.453 201.551L100.649 222.154H91.8137L104.746 201.551H113.453Z" fill="#192231"/>
<path d="M133.172 201.551L120.239 222.154H111.532L124.337 201.551H133.172Z" fill="#192231"/>
<path d="M152.762 201.551L139.958 222.154H131.123L144.055 201.551H152.762Z" fill="#192231"/>
<path d="M172.481 201.551L159.677 222.154H150.842L163.646 201.551H172.481Z" fill="#192231"/>
<path d="M192.199 201.551L179.267 222.154H170.432L183.364 201.551H192.199Z" fill="#192231"/>
<path d="M211.79 201.551L198.986 222.154H190.151L203.083 201.551H211.79Z" fill="#192231"/>
<path d="M231.508 201.551L218.576 222.154H209.869L222.673 201.551H231.508Z" fill="#192231"/>
<path d="M251.099 201.551L238.295 222.154H229.46L242.392 201.551H251.099Z" fill="#192231"/>
<path d="M270.817 201.551L257.885 222.154H249.178L261.982 201.551H270.817Z" fill="#192231"/>
<path d="M290.408 201.551L277.604 222.154H268.769L281.701 201.551H290.408Z" fill="#192231"/>
<path d="M310.127 201.551L297.194 222.154H288.488L301.292 201.551H310.127Z" fill="#192231"/>
<path d="M329.717 201.551L316.913 222.154H308.078L321.01 201.551H329.717Z" fill="#192231"/>
<path d="M349.436 201.551L336.632 222.154H327.797L340.601 201.551H349.436Z" fill="#192231"/>
<path d="M355.71 208.973V222.153H347.515L355.71 208.973Z" fill="#192231"/>
<path d="M198.345 85.3555H169.408V92.5218H198.345V85.3555Z" fill="#E6F0FF"/>
<path d="M238.491 121.339L133.113 138.607L138.458 171.188L243.836 153.919L238.491 121.339Z" fill="#7B8AA1"/>
<path d="M134.964 138.334C133.556 138.974 184.005 118.371 184.005 118.371L238.551 121.314" stroke="#C4DCFF" stroke-miterlimit="10"/>
<path d="M410 267.455H0.775391V280.252H410V267.455Z" fill="#7B8AA1"/>
<path d="M323.827 11.9004H292.969V70.2544H323.827V11.9004Z" fill="#7B8AA1"/>
<path d="M328.949 0H274.915V54.003H328.949V0Z" fill="#7B8AA1"/>
<path d="M183.877 106.215C188.968 106.215 193.096 102.09 193.096 97.0009C193.096 91.9123 188.968 87.7871 183.877 87.7871C178.785 87.7871 174.657 91.9123 174.657 97.0009C174.657 102.09 178.785 106.215 183.877 106.215Z" fill="#7B8AA1"/>
<path d="M170.304 17.4043H168.383V92.5222H170.304V17.4043Z" fill="#7B8AA1"/>
<path d="M184.517 17.4043H182.596V92.5222H184.517V17.4043Z" fill="#7B8AA1"/>
<path d="M199.626 17.4043H197.705V92.5222H199.626V17.4043Z" fill="#7B8AA1"/>
<path d="M184.004 109.67C183.492 109.67 183.108 109.286 183.108 108.774V98.2806C183.108 97.7687 183.492 97.3848 184.004 97.3848C184.517 97.3848 184.901 97.7687 184.901 98.2806V108.774C184.901 109.286 184.517 109.67 184.004 109.67Z" fill="#7B8AA1"/>
<path d="M199.754 91.7539H168.383V99.816H199.754V91.7539Z" fill="#7B8AA1"/>
<path d="M183.748 121.444C182.468 121.444 181.06 121.06 179.907 120.292C178.371 119.268 177.346 117.733 177.09 115.941C176.706 114.149 177.218 112.358 178.243 110.822C179.523 108.903 181.7 107.879 184.005 107.879C184.517 107.879 184.901 108.263 184.901 108.775C184.901 109.287 184.389 109.67 184.005 109.67C182.34 109.67 180.803 110.438 179.907 111.846C179.139 112.87 178.883 114.277 179.139 115.557C179.395 116.837 180.163 117.988 181.188 118.756C183.364 120.292 186.565 119.78 188.102 117.477C188.614 116.709 188.998 115.685 188.998 114.789C188.998 114.277 189.382 113.893 189.894 113.893C190.407 113.893 190.791 114.277 190.791 114.789C190.791 116.197 190.407 117.477 189.51 118.628C188.102 120.42 185.925 121.444 183.748 121.444Z" fill="#7B8AA1"/>
<path d="M324.083 0H160.061V27.7693H324.083V0Z" fill="#7B8AA1"/>
<path d="M185.541 4.86328L175.042 23.0349L164.542 4.86328H185.541Z" fill="#7B8AA1"/>
<path d="M201.546 23.0349L191.047 4.86328L180.547 23.0349H201.546Z" fill="#7B8AA1"/>
<path d="M169.28 23.0343H160.061V6.91016L169.28 23.0343Z" fill="#7B8AA1"/>
<path d="M218.704 4.86328L208.205 23.0349L197.705 4.86328H218.704Z" fill="#7B8AA1"/>
<path d="M234.709 23.0349L224.21 4.86328L213.71 23.0349H234.709Z" fill="#7B8AA1"/>
<path d="M251.867 4.86328L241.368 23.0349L230.868 4.86328H251.867Z" fill="#7B8AA1"/>
<path d="M268 23.0349L257.501 4.86328L247.001 23.0349H268Z" fill="#7B8AA1"/>
<path d="M285.158 4.86328L274.659 23.0349L264.159 4.86328H285.158Z" fill="#7B8AA1"/>
<path d="M301.164 23.0349L290.664 4.86328L280.165 23.0349H301.164Z" fill="#7B8AA1"/>
<path d="M318.321 4.86328L307.822 23.0349L297.322 4.86328H318.321Z" fill="#7B8AA1"/>
<path d="M323.955 4.99031V23.034H313.456L323.955 4.73438V4.99031Z" fill="#7B8AA1"/>
<path d="M160.06 0H154.939V27.7693H160.06V0Z" fill="#7B8AA1"/>
<path d="M328.949 0H323.827V27.7693H328.949V0Z" fill="#7B8AA1"/>
<path d="M297.322 99.8164H292.969V272.063H297.322V99.8164Z" fill="#7B8AA1"/>
<path d="M323.955 99.8164H319.602V272.063H323.955V99.8164Z" fill="#7B8AA1"/>
<path d="M321.01 120.291H295.146V122.466H321.01V120.291Z" fill="#7B8AA1"/>
<path d="M321.01 142.43H295.146V144.605H321.01V142.43Z" fill="#7B8AA1"/>
<path d="M321.01 164.568H295.146V166.744H321.01V164.568Z" fill="#7B8AA1"/>
<path d="M321.01 186.836H295.146V189.011H321.01V186.836Z" fill="#7B8AA1"/>
<path d="M321.01 208.975H295.146V211.15H321.01V208.975Z" fill="#7B8AA1"/>
<path d="M321.01 231.113H295.146V233.289H321.01V231.113Z" fill="#7B8AA1"/>
</svg>
