<svg  width="1.5rem" height="1.5rem"  viewBox="0 0 24 24" fill="none" xmlns="http://www.w3.org/2000/svg">
<path d="M11.575 16.4798C10.669 16.4365 9.7951 16.131 9.05948 15.6005C8.32386 15.0699 7.75817 14.3371 7.43117 13.4911C7.10417 12.6451 7.02993 11.7224 7.21747 10.835C7.40502 9.94758 7.84627 9.13377 8.48761 8.49242C9.12895 7.85108 9.94277 7.40983 10.8302 7.22228C11.7175 7.03474 12.6403 7.10898 13.4863 7.43598C14.3323 7.76298 15.0651 8.32867 15.5957 9.06429C16.1262 9.79992 16.4317 10.6738 16.475 11.5798L14.837 11.0878C14.709 10.5474 14.4391 10.0509 14.0552 9.64973C13.6712 9.24853 13.1871 8.95712 12.6528 8.80561C12.1186 8.65409 11.5535 8.64797 11.0161 8.78787C10.4787 8.92776 9.98836 9.20861 9.59579 9.6014C9.20322 9.99418 8.92263 10.4847 8.78302 11.0221C8.64341 11.5596 8.64983 12.1247 8.80163 12.6588C8.95343 13.193 9.2451 13.677 9.6465 14.0608C10.0479 14.4445 10.5445 14.7141 11.085 14.8418L11.575 16.4798ZM19.6 11.7998C19.6 12.0338 19.592 12.2678 19.569 12.4998L18.032 12.0398C18.04 11.9618 18.04 11.8758 18.04 11.7978C18.038 10.5638 17.6702 9.35811 16.9832 8.33308C16.2962 7.30805 15.3208 6.50968 14.1801 6.03888C13.0395 5.56807 11.7849 5.44596 10.5749 5.68798C9.36491 5.93 8.25381 6.52529 7.38203 7.3986C6.51025 8.27192 5.91692 9.38407 5.67703 10.5945C5.43714 11.8049 5.56146 13.0593 6.03427 14.1991C6.50709 15.3389 7.30717 16.3129 8.33341 16.9981C9.35965 17.6834 10.566 18.049 11.8 18.0488C11.878 18.0488 11.964 18.0488 12.042 18.0408L12.502 19.5788C12.268 19.6018 12.034 19.6098 11.802 19.6098C10.2593 19.6098 8.75121 19.1523 7.46851 18.2952C6.18581 17.4382 5.18606 16.22 4.5957 14.7947C4.00533 13.3694 3.85087 11.8011 4.15183 10.2881C4.4528 8.77501 5.19567 7.38519 6.28652 6.29434C7.37737 5.20349 8.7672 4.46061 10.2803 4.15964C11.7933 3.85868 13.3616 4.01315 14.7869 4.60351C16.2122 5.19387 17.4303 6.19362 18.2874 7.47632C19.1445 8.75902 19.602 10.2671 19.602 11.8098L19.6 11.7998ZM16.661 15.1298L19.602 14.1468L11.8 11.7998L14.14 19.5998L15.123 16.6578L18.455 19.9998L20 18.4548L16.661 15.1298Z" fill="#ECD9CC"/>
</svg>
