<svg width="1.5rem" height="1.5rem" viewBox="0 0 24 24" fill="none" xmlns="http://www.w3.org/2000/svg">
<path d="M17.714 5.00001H5.524C5.12013 5.00107 4.73311 5.16197 4.44754 5.44755C4.16196 5.73312 4.00106 6.12015 4 6.52401V15.667C4.00132 16.0707 4.16234 16.4575 4.44789 16.7428C4.73344 17.0282 5.12031 17.189 5.524 17.19H12.381V15.667H5.524V8.04801L11.624 11.858L17.724 8.04801V11.858H19.248V6.52401C19.2475 6.32318 19.2074 6.12443 19.13 5.93911C19.0526 5.7538 18.9394 5.58556 18.7969 5.44401C18.6545 5.30247 18.4855 5.1904 18.2997 5.11422C18.1138 5.03803 17.9148 4.99922 17.714 5.00001ZM11.614 10.333L5.514 6.52301H17.704L11.614 10.333ZM16.947 13.381L20 16.429L16.952 19.477V17.19H13.9V15.667H16.948L16.947 13.381Z" fill="#ECD9CC"/>
</svg>
