<svg width="32" height="10" viewBox="0 0 32 10" fill="none" xmlns="http://www.w3.org/2000/svg">
<path d="M25.35 6.46557C22.0906 6.46557 21.3209 6.5 19 6.5C18.5057 6.5 16.509 4 16 4C15.5142 4 16 4 13 6.5C8.31133 10.4072 11 10 5.5 6.5C3.94905 6.5 2.80564 6.46557 1.01382 6.46557C1.01382 6.46557 0.000945709 5.98922 9.94729e-09 5.04033C-0.000115959 4.08982 1.01382 3.61403 1.01382 3.61403C5.00138 3.61403 4.04434 3.61403 6 3.61403C6.51105 3.61403 6 3.61403 9.5 6C11.5 4.5 11.6417 4.33982 12.5 3.61403C17.3651 -0.5 14.5 -0.5 19.5 3.61403C20.6394 3.61403 24.0817 3.61403 25.35 3.61403C25.35 3.61403 25.3509 1.60768 25.35 0.762995C25.349 -0.081984 26.2826 -0.201851 26.871 0.288343C31.434 4.09019 26.871 0.288321 31.434 4.08988C32.0897 4.63624 32.2435 5.39265 31.5321 5.99091C31.5321 5.99091 27.0266 9.66832 26.871 9.79238C26.3236 10.2286 25.3927 9.9333 25.35 9.31712V6.46557Z" fill="#BEB082"/>
</svg>
