<svg width="1.5rem" height="1.5rem" viewBox="0 0 24 24" fill="none" xmlns="http://www.w3.org/2000/svg">
<path d="M22 19.8748V12.5314C22.0001 12.0205 21.8945 11.515 21.6898 11.0458C21.4851 10.5766 21.1856 10.1536 20.8096 9.80274L13.8053 3.26444C13.4525 2.93501 12.9855 2.75146 12.5 2.75146C12.0145 2.75146 11.5475 2.93501 11.1947 3.26444L4.19035 9.80274C3.81436 10.1536 3.51485 10.5766 3.31017 11.0458C3.10549 11.515 2.99995 12.0205 3 12.5314V19.8748C3 20.3725 3.20018 20.8499 3.5565 21.2018C3.91282 21.5537 4.39609 21.7515 4.9 21.7515H20.1C20.6039 21.7515 21.0872 21.5537 21.4435 21.2018C21.7998 20.8499 22 20.3725 22 19.8748Z" stroke="#ECD9CC" stroke-width="2" stroke-linecap="round" stroke-linejoin="round"/>
<path d="M15.2789 14.6127C15.2789 15.1819 15.0938 15.6721 14.7237 16.0831C14.3535 16.4942 13.8727 16.7481 13.2811 16.8449V17.8214C13.2811 17.8735 13.2644 17.9163 13.2309 17.9498C13.1974 17.9833 13.1547 18 13.1026 18H12.3492C12.3009 18 12.259 17.9823 12.2237 17.947C12.1883 17.9116 12.1707 17.8698 12.1707 17.8214V16.8449C11.9251 16.8114 11.688 16.7537 11.4592 16.6719C11.2304 16.59 11.0416 16.5073 10.8928 16.4235C10.7439 16.3398 10.6063 16.2506 10.4798 16.1557C10.3533 16.0608 10.2668 15.9911 10.2203 15.9464C10.1738 15.9018 10.1413 15.8683 10.1227 15.846C10.0594 15.7679 10.0557 15.6916 10.1115 15.6172L10.6863 14.8638C10.7123 14.8266 10.7551 14.8043 10.8146 14.7969C10.8704 14.7894 10.9151 14.8062 10.9486 14.8471L10.9597 14.8583C11.3801 15.2266 11.8321 15.4591 12.3157 15.5558C12.4534 15.5856 12.591 15.6004 12.7287 15.6004C13.03 15.6004 13.2951 15.5205 13.5239 15.3605C13.7527 15.2005 13.8671 14.9736 13.8671 14.6797C13.8671 14.5755 13.8392 14.4769 13.7834 14.3839C13.7276 14.2909 13.6653 14.2128 13.5964 14.1496C13.5276 14.0863 13.4188 14.0166 13.27 13.9403C13.1212 13.864 12.9984 13.8045 12.9017 13.7617C12.805 13.7189 12.6561 13.6585 12.4553 13.5804C12.3102 13.5208 12.1958 13.4743 12.1121 13.4408C12.0284 13.4074 11.914 13.3581 11.7689 13.293C11.6238 13.2279 11.5075 13.1702 11.4201 13.12C11.3327 13.0698 11.2276 13.0037 11.1048 12.9219C10.982 12.84 10.8825 12.761 10.8063 12.6847C10.73 12.6084 10.6491 12.5173 10.5635 12.4113C10.4779 12.3052 10.4119 12.1974 10.3654 12.0876C10.3189 11.9779 10.2798 11.8542 10.2482 11.7165C10.2166 11.5789 10.2008 11.4338 10.2008 11.2812C10.2008 10.7679 10.3831 10.3177 10.7477 9.9308C11.1122 9.5439 11.5866 9.29464 12.1707 9.18304V8.17857C12.1707 8.13021 12.1883 8.08836 12.2237 8.05301C12.259 8.01767 12.3009 8 12.3492 8H13.1026C13.1547 8 13.1974 8.01674 13.2309 8.05022C13.2644 8.08371 13.2811 8.12649 13.2811 8.17857V9.16071C13.4932 9.18304 13.6987 9.22582 13.8978 9.28906C14.0968 9.35231 14.2586 9.41462 14.3833 9.476C14.5079 9.53739 14.626 9.60714 14.7376 9.68527C14.8492 9.76339 14.9218 9.81734 14.9553 9.8471C14.9887 9.87686 15.0166 9.9029 15.039 9.92522C15.1022 9.99219 15.1115 10.0629 15.0669 10.1373L14.6149 10.952C14.5851 11.0078 14.5423 11.0376 14.4865 11.0413C14.4344 11.0525 14.3842 11.0394 14.3358 11.0022C14.3247 10.9911 14.2977 10.9688 14.2549 10.9353C14.2121 10.9018 14.1396 10.8525 14.0373 10.7874C13.935 10.7223 13.8262 10.6628 13.7108 10.6088C13.5955 10.5549 13.4569 10.5065 13.2951 10.4637C13.1333 10.4209 12.9742 10.3996 12.818 10.3996C12.4646 10.3996 12.1762 10.4795 11.953 10.6395C11.7298 10.7995 11.6182 11.006 11.6182 11.2589C11.6182 11.3557 11.634 11.4449 11.6656 11.5268C11.6973 11.6086 11.7521 11.6858 11.8303 11.7584C11.9084 11.8309 11.9819 11.8923 12.0507 11.9425C12.1195 11.9927 12.2237 12.0504 12.3632 12.1155C12.5027 12.1806 12.6152 12.2308 12.7008 12.2662C12.7864 12.3015 12.9166 12.3527 13.0914 12.4196C13.2886 12.494 13.4393 12.5526 13.5434 12.5954C13.6476 12.6382 13.789 12.7033 13.9675 12.7907C14.1461 12.8782 14.2865 12.9572 14.3888 13.0279C14.4912 13.0986 14.6065 13.1916 14.7348 13.3069C14.8632 13.4222 14.9618 13.5404 15.0306 13.6613C15.0994 13.7822 15.158 13.9245 15.2064 14.0882C15.2547 14.2519 15.2789 14.4267 15.2789 14.6127Z" fill="#ECD9CC"/>
</svg>
