<svg width="56" height="56" viewBox="0 0 56 56" fill="none" xmlns="http://www.w3.org/2000/svg">
<path fill-rule="evenodd" clip-rule="evenodd" d="M28.9134 14.8629C28.2668 14.6474 27.5677 14.6474 26.9211 14.8629L26.5346 14.9918C25.8212 15.2296 25.2165 15.7147 24.8296 16.3595L12.8049 36.4006C12.3427 37.171 12.2402 38.1049 12.5243 38.9572C12.7407 39.6064 13.1673 40.165 13.7368 40.5446L14.7496 41.2198C15.267 41.5648 15.875 41.7489 16.4969 41.7489H39.9843C40.8197 41.7489 41.6209 41.417 42.2116 40.8263L42.3054 40.7325C43.1491 39.8888 43.4437 38.6409 43.0664 37.509L42.9621 37.1962C42.8946 36.9937 42.8067 36.7987 42.6998 36.614L30.9905 16.3887C30.6052 15.7233 29.9899 15.2218 29.2605 14.9787L28.9134 14.8629ZM25.9619 11.9853C27.2311 11.5622 28.6034 11.5622 29.8726 11.9853L30.2197 12.101C31.6515 12.5783 32.8594 13.5628 33.6156 14.8689L45.325 35.0942C45.5348 35.4567 45.7073 35.8396 45.8398 36.2369L45.944 36.5498C46.6847 38.7717 46.1064 41.2213 44.4503 42.8774L44.3565 42.9711C43.1969 44.1307 41.6242 44.7822 39.9843 44.7822H16.4969C15.2761 44.7822 14.0827 44.4209 13.067 43.7437L12.0542 43.0685C10.9235 42.3147 10.0763 41.2056 9.64661 39.9164C9.08249 38.224 9.28605 36.3697 10.2039 34.84L22.2285 14.7989C22.988 13.5332 24.1751 12.5809 25.5754 12.1141L25.9619 11.9853ZM29.633 36.7531C29.633 37.7196 28.8495 38.5031 27.883 38.5031C26.9165 38.5031 26.133 37.7196 26.133 36.7531C26.133 35.7866 26.9165 35.0031 27.883 35.0031C28.8495 35.0031 29.633 35.7866 29.633 36.7531ZM27.9974 19.1346C26.9665 19.1346 26.1307 20.0933 26.1307 21.276C26.1307 22.4586 26.9665 33.1346 27.9974 33.1346C29.0283 33.1346 29.8641 22.4586 29.8641 21.276C29.8641 20.0933 29.0283 19.1346 27.9974 19.1346Z" fill="#BEB082"/>
</svg>
