<svg width="1.5rem" height="1.5rem" viewBox="0 0 24 24" fill="none" xmlns="http://www.w3.org/2000/svg">
<path d="M4.63594 13.6666L5.04494 13.7246L8.78494 9.91659C8.70964 9.63729 8.70928 9.34307 8.78389 9.06358C8.8585 8.7841 9.00545 8.52921 9.20994 8.32459C9.35924 8.16928 9.53836 8.04571 9.73657 7.96131C9.93479 7.8769 10.148 7.83339 10.3634 7.83339C10.5789 7.83339 10.7921 7.8769 10.9903 7.96131C11.1885 8.04571 11.3676 8.16928 11.5169 8.32459C11.7214 8.52921 11.8684 8.7841 11.943 9.06358C12.0176 9.34307 12.0172 9.63729 11.9419 9.91659L14.0419 12.0586L14.4549 11.9996C14.5939 11.9884 14.7336 12.0082 14.8639 12.0576L17.7849 9.08259C17.7363 8.94928 17.7169 8.80707 17.7279 8.66559C17.7339 8.34313 17.8349 8.02959 18.0184 7.76434C18.2018 7.49909 18.4596 7.29395 18.7592 7.17467C19.0589 7.05539 19.3871 7.02728 19.7027 7.09387C20.0182 7.16046 20.3071 7.31879 20.533 7.54898C20.7589 7.77916 20.9118 8.07095 20.9725 8.38772C21.0331 8.70448 20.9988 9.03211 20.874 9.32947C20.7491 9.62683 20.5391 9.88068 20.2705 10.0591C20.0018 10.2376 19.6865 10.3327 19.3639 10.3326C19.225 10.3438 19.0853 10.324 18.9549 10.2746L16.0339 13.2496C16.0826 13.3829 16.102 13.5251 16.0909 13.6666C16.0963 13.8849 16.058 14.1021 15.9782 14.3054C15.8984 14.5086 15.7787 14.6939 15.6262 14.8502C15.4737 15.0065 15.2915 15.1307 15.0902 15.2155C14.889 15.3004 14.6728 15.3441 14.4544 15.3441C14.2361 15.3441 14.0199 15.3004 13.8187 15.2155C13.6174 15.1307 13.4352 15.0065 13.2827 14.8502C13.1302 14.6939 13.0105 14.5086 12.9307 14.3054C12.8509 14.1021 12.8125 13.8849 12.8179 13.6666L12.8749 13.2496L10.7749 11.1076C10.5054 11.1659 10.2265 11.1659 9.95694 11.1076L6.21494 14.9166L6.27194 15.3336C6.27567 15.7714 6.10546 16.1928 5.7987 16.5052C5.49195 16.8175 5.07373 16.9954 4.63594 16.9996C4.20102 16.9889 3.78751 16.8087 3.48367 16.4973C3.17984 16.186 3.00977 15.7681 3.00977 15.3331C3.00977 14.898 3.17984 14.4802 3.48367 14.1689C3.78751 13.8575 4.20102 13.6772 4.63594 13.6666Z" fill="#ECD9CC"/>
</svg>
