<svg width="16" height="16" viewBox="0 0 16 16" fill="none" xmlns="http://www.w3.org/2000/svg">
<path d="M4.63782 11.9224C4.63869 12.2194 4.75705 12.5039 4.96702 12.7139C5.177 12.9238 5.46153 13.0422 5.75848 13.0431H10.2425C10.5394 13.0422 10.824 12.9238 11.0339 12.7139C11.2439 12.5039 11.3623 12.2194 11.3631 11.9224V5.19708H4.63782V11.9224ZM11.9238 3.51574H9.96181L9.40181 2.95508H6.60181L6.04115 3.51574H4.07715V4.63641H11.9238V3.51574Z" fill="#BEB082"/>
<path d="M5.66699 11.3422C5.6676 11.5693 5.74973 11.7869 5.89543 11.9475C6.04113 12.108 6.23856 12.1985 6.44462 12.1992H9.55604C9.76209 12.1985 9.95952 12.108 10.1052 11.9475C10.2509 11.7869 10.333 11.5693 10.3337 11.3422V6.19922H5.66699V11.3422Z" fill="white"/>
</svg>
