<svg width="1rem" height="1rem" fill="none" xmlns="http://www.w3.org/2000/svg">
<path d="M10.381 7.33268H6.95246C6.87669 7.33268 6.80401 7.29756 6.75043 7.23505C6.69685 7.17254 6.66675 7.08775 6.66675 6.99935C6.66675 6.91094 6.69685 6.82616 6.75043 6.76365C6.80401 6.70113 6.87669 6.66602 6.95246 6.66602H10.381C10.4568 6.66602 10.5295 6.70113 10.5831 6.76365C10.6366 6.82616 10.6667 6.91094 10.6667 6.99935C10.6667 7.08775 10.6366 7.17254 10.5831 7.23505C10.5295 7.29756 10.4568 7.33268 10.381 7.33268Z" fill="#192231"/>
<path d="M10.381 9.33268H6.95246C6.87669 9.33268 6.80401 9.29756 6.75043 9.23505C6.69685 9.17254 6.66675 9.08775 6.66675 8.99935C6.66675 8.91094 6.69685 8.82616 6.75043 8.76365C6.80401 8.70113 6.87669 8.66602 6.95246 8.66602H10.381C10.4568 8.66602 10.5295 8.70113 10.5831 8.76365C10.6366 8.82616 10.6667 8.91094 10.6667 8.99935C10.6667 9.08775 10.6366 9.17254 10.5831 9.23505C10.5295 9.29756 10.4568 9.33268 10.381 9.33268Z" fill="#192231"/>
<path d="M10.381 11.3327H6.95246C6.87669 11.3327 6.80401 11.2976 6.75043 11.2351C6.69685 11.1725 6.66675 11.0878 6.66675 10.9993C6.66675 10.9109 6.69685 10.8262 6.75043 10.7636C6.80401 10.7011 6.87669 10.666 6.95246 10.666H10.381C10.4568 10.666 10.5295 10.7011 10.5831 10.7636C10.6366 10.8262 10.6667 10.9109 10.6667 10.9993C10.6667 11.0878 10.6366 11.1725 10.5831 11.2351C10.5295 11.2976 10.4568 11.3327 10.381 11.3327Z" fill="#192231"/>
<path d="M11.088 13.3327H6.07005C5.82065 13.3247 5.58458 13.2182 5.41353 13.0365C5.24248 12.8548 5.15037 12.6128 5.15738 12.3633V5.57535C5.15037 5.32585 5.24246 5.08374 5.41349 4.90196C5.58453 4.72018 5.82059 4.61353 6.07005 4.60535H11.0874C11.3369 4.61336 11.5731 4.71995 11.7441 4.90177C11.9152 5.08359 12.0072 5.32581 12 5.57535V12.3627C12.0072 12.6121 11.9153 12.8542 11.7444 13.036C11.5734 13.2178 11.3374 13.3245 11.088 13.3327ZM6.07005 5.57535V12.3627H11.0874V5.57535H6.07005ZM4.24538 10.4233H3.33338V3.63535C3.32637 3.38603 3.41839 3.14409 3.5893 2.96243C3.7602 2.78078 3.9961 2.6742 4.24538 2.66602H9.71938V3.63535H4.24538V10.4233Z" fill="#192231"/>
</svg>
