<svg width="1.5rem" height="1.5rem" viewBox="0 0 24 24" fill="none" xmlns="http://www.w3.org/2000/svg">
<path d="M9.86402 11.6027C10.0766 11.683 10.3124 11.6756 10.5196 11.5821C10.7267 11.4885 10.8882 11.3166 10.9685 11.104C11.0489 10.8914 11.0415 10.6556 10.9479 10.4484C10.8544 10.2413 10.6824 10.0798 10.4698 9.99944C9.74044 9.72032 9.10121 9.24714 8.62126 8.63106C8.1413 8.01497 7.83887 7.27942 7.74666 6.50391C7.65444 5.7284 7.77596 4.94243 8.09807 4.23098C8.42017 3.51952 8.93062 2.90964 9.57422 2.46727C10.2178 2.02489 10.9701 1.76685 11.7497 1.72103C12.5294 1.67522 13.3067 1.84337 13.9977 2.20732C14.6887 2.57126 15.267 3.11716 15.6702 3.78599C16.0735 4.45482 16.2862 5.22114 16.2855 6.00211C16.2874 6.48917 16.2033 6.97275 16.037 7.43053C15.959 7.64403 15.9691 7.87976 16.0649 8.08586C16.1608 8.29195 16.3346 8.45152 16.5481 8.52947C16.7616 8.60742 16.9973 8.59736 17.2034 8.50151C17.4095 8.40565 17.5691 8.23185 17.647 8.01834C17.8819 7.37215 18.0011 6.68965 17.9992 6.00211C17.9999 4.90852 17.7017 3.83554 17.1367 2.89921C16.5717 1.96288 15.7614 1.19883 14.7936 0.689693C13.8257 0.180559 12.7371 -0.0542868 11.6454 0.0105543C10.5538 0.0753955 9.50059 0.437456 8.59982 1.05758C7.69904 1.6777 6.98495 2.53229 6.53475 3.52892C6.08456 4.52555 5.9154 5.6263 6.04558 6.71211C6.17575 7.79793 6.6003 8.8275 7.27331 9.68948C7.94633 10.5515 8.84219 11.213 9.86402 11.6027Z" fill="#ECD9CC"/>
<path d="M10.5098 22.2828H2.59226C2.45208 22.2834 2.31379 22.2505 2.18889 22.1869C2.06399 22.1232 1.9561 22.0307 1.8742 21.9169C1.79859 21.8179 1.7481 21.702 1.72706 21.5792C1.70602 21.4563 1.71505 21.3303 1.75338 21.2117C2.31306 19.5388 3.329 18.0556 4.68663 16.9294C6.04425 15.8031 7.68956 15.0785 9.43699 14.8374C9.66221 14.806 9.86574 14.6865 10.0028 14.5051C10.1399 14.3236 10.1993 14.0952 10.1679 13.87C10.1365 13.6448 10.017 13.4412 9.83558 13.3042C9.65415 13.1671 9.42571 13.1077 9.2005 13.1391C7.13523 13.4257 5.19108 14.2835 3.58718 15.6158C1.98328 16.9481 0.783389 18.7019 0.122745 20.6796C0.00104277 21.0555 -0.0292484 21.4551 0.0343849 21.8451C0.0980182 22.2351 0.253741 22.6043 0.488631 22.922C0.730044 23.254 1.04636 23.5243 1.41188 23.711C1.77741 23.8977 2.18182 23.9955 2.59226 23.9965H10.5098C10.7371 23.9965 10.955 23.9063 11.1157 23.7456C11.2764 23.5849 11.3667 23.3669 11.3667 23.1397C11.3667 22.9124 11.2764 22.6945 11.1157 22.5338C10.955 22.3731 10.7371 22.2828 10.5098 22.2828Z" fill="#ECD9CC"/>
<path d="M17.142 10.2866C15.7862 10.2866 14.4609 10.6887 13.3336 11.4419C12.2063 12.1951 11.3276 13.2657 10.8088 14.5183C10.29 15.7709 10.1542 17.1492 10.4187 18.479C10.6832 19.8087 11.3361 21.0302 12.2948 21.9889C13.2535 22.9476 14.4749 23.6004 15.8047 23.8649C17.1344 24.1294 18.5127 23.9937 19.7653 23.4748C21.0179 22.956 22.0885 22.0774 22.8417 20.9501C23.595 19.8228 23.997 18.4974 23.997 17.1416C23.995 15.3242 23.2721 13.5818 21.987 12.2967C20.7019 11.0115 18.9594 10.2887 17.142 10.2866ZM17.142 22.2829C16.1252 22.2829 15.1311 21.9814 14.2857 21.4164C13.4402 20.8515 12.7812 20.0486 12.3921 19.1091C12.003 18.1697 11.9012 17.1359 12.0995 16.1386C12.2979 15.1413 12.7876 14.2252 13.5066 13.5062C14.2256 12.7872 15.1417 12.2975 16.139 12.0992C17.1363 11.9008 18.17 12.0026 19.1095 12.3917C20.0489 12.7809 20.8519 13.4398 21.4168 14.2853C21.9817 15.1308 22.2833 16.1248 22.2833 17.1416C22.2819 18.5048 21.7398 19.8117 20.7759 20.7756C19.812 21.7394 18.5051 22.2815 17.142 22.2829Z" fill="#ECD9CC"/>
<path d="M17.5705 16.2844H16.7136C16.6 16.2844 16.491 16.2393 16.4107 16.159C16.3303 16.0786 16.2852 15.9696 16.2852 15.856C16.2852 15.7424 16.3303 15.6334 16.4107 15.5531C16.491 15.4727 16.6 15.4276 16.7136 15.4276H17.999C18.2262 15.4276 18.4442 15.3373 18.6049 15.1766C18.7656 15.0159 18.8558 14.7979 18.8558 14.5707C18.8558 14.3434 18.7656 14.1255 18.6049 13.9648C18.4442 13.8041 18.2262 13.7138 17.999 13.7138C17.999 13.4866 17.9087 13.2686 17.748 13.1079C17.5873 12.9472 17.3693 12.8569 17.1421 12.8569C16.9148 12.8569 16.6969 12.9472 16.5362 13.1079C16.3755 13.2686 16.2852 13.4866 16.2852 13.7138V13.7575C15.7655 13.8641 15.3039 14.1598 14.9897 14.5872C14.6754 15.0147 14.531 15.5435 14.5843 16.0713C14.6377 16.5992 14.885 17.0884 15.2783 17.4444C15.6717 17.8003 16.1831 17.9977 16.7136 17.9982H17.5705C17.6841 17.9982 17.7931 18.0433 17.8735 18.1237C17.9538 18.204 17.999 18.313 17.999 18.4266C17.999 18.5403 17.9538 18.6492 17.8735 18.7296C17.7931 18.8099 17.6841 18.8551 17.5705 18.8551H16.2852C16.0579 18.8551 15.84 18.9453 15.6793 19.106C15.5186 19.2667 15.4283 19.4847 15.4283 19.7119C15.4283 19.9392 15.5186 20.1572 15.6793 20.3179C15.84 20.4785 16.0579 20.5688 16.2852 20.5688C16.2852 20.7961 16.3755 21.014 16.5362 21.1747C16.6969 21.3354 16.9148 21.4257 17.1421 21.4257C17.3693 21.4257 17.5873 21.3354 17.748 21.1747C17.9087 21.014 17.999 20.7961 17.999 20.5688V20.5251C18.5186 20.4185 18.9803 20.1229 19.2945 19.6954C19.6087 19.268 19.7531 18.7391 19.6998 18.2113C19.6465 17.6835 19.3992 17.1942 19.0058 16.8383C18.6125 16.4823 18.101 16.2849 17.5705 16.2844Z" fill="#ECD9CC"/>
</svg>
