<svg width="24" height="24" viewBox="0 0 24 24" fill="none" xmlns="http://www.w3.org/2000/svg">
<path d="M5.33419 19.2138C5.03095 19.0387 4.76516 18.8057 4.552 18.5279C4.33883 18.2502 4.18247 17.9331 4.09184 17.5949C4.00121 17.2567 3.97808 16.904 4.02378 16.5569C4.06948 16.2097 4.18311 15.875 4.35819 15.5718L9.69118 6.33478C10.4272 5.05978 15.0452 7.72578 14.3092 9.00178L8.97618 18.2378C8.80115 18.541 8.56809 18.8068 8.29033 19.02C8.01257 19.2331 7.69553 19.3895 7.35734 19.4801C7.01914 19.5708 6.6664 19.5939 6.31927 19.5482C5.97214 19.5025 5.6374 19.3889 5.33419 19.2138Z" fill="#FBBC04"/>
<path d="M10.6682 5.35721C10.9714 5.18214 11.3061 5.06851 11.6533 5.02281C12.0004 4.97711 12.3531 5.00023 12.6913 5.09086C13.0295 5.1815 13.3466 5.33786 13.6243 5.55102C13.9021 5.76418 14.1351 6.02997 14.3102 6.33321L19.6432 15.5702C19.8183 15.8734 19.932 16.2082 19.9777 16.5553C20.0235 16.9025 20.0004 17.2553 19.9098 17.5935C19.8192 17.9317 19.6629 18.2488 19.4498 18.5266C19.2367 18.8045 18.9709 19.0376 18.6677 19.2127C18.3644 19.3878 18.0297 19.5015 17.6825 19.5473C17.3354 19.593 16.9826 19.5699 16.6444 19.4793C16.3061 19.3888 15.9891 19.2324 15.7112 19.0193C15.4334 18.8062 15.2003 18.5404 15.0252 18.2372L9.69217 8.99921C9.5171 8.69599 9.40347 8.36126 9.35777 8.01412C9.31207 7.66699 9.33519 7.31425 9.42583 6.97606C9.51646 6.63786 9.67282 6.32083 9.88598 6.04306C10.0991 5.7653 10.3649 5.53225 10.6682 5.35721Z" fill="#4285F4"/>
<path d="M5.33404 19.2125C4.87722 18.9485 4.50896 18.5549 4.27586 18.0816C4.04276 17.6083 3.95529 17.0764 4.02453 16.5534C4.09376 16.0303 4.31658 15.5396 4.6648 15.1432C5.01301 14.7468 5.47098 14.4626 5.98075 14.3265C6.49053 14.1905 7.0292 14.2087 7.52862 14.3788C8.02805 14.549 8.46578 14.8635 8.78643 15.2825C9.10708 15.7015 9.29625 16.2062 9.33 16.7327C9.36376 17.2593 9.24057 17.784 8.97604 18.2405C8.801 18.5437 8.56795 18.8095 8.29019 19.0227C8.01242 19.2358 7.69539 19.3922 7.35719 19.4828C7.019 19.5735 6.66626 19.5966 6.31913 19.5509C5.97199 19.5052 5.63726 19.3916 5.33404 19.2165" fill="#36A753"/>
</svg>
