<svg width="1.5rem" height="1.5rem" viewBox="0 0 24 24" fill="none" xmlns="http://www.w3.org/2000/svg">
<path d="M18.2233 7.55664H16.4453V9.33464H18.2233V7.55664Z" fill="#ECD9CC"/>
<path d="M18.2233 11.1113H16.4453V12.8893H18.2233V11.1113Z" fill="#ECD9CC"/>
<path d="M18.2233 14.668H16.4453V16.446H18.2233V14.668Z" fill="#ECD9CC"/>
<path d="M2.22314 11.112V20.001H7.55614V15.557H9.33414V20.001H14.6671V11.112L8.44514 6.66797L2.22314 11.112ZM12.8901 18.223H11.1121V13.779H5.77914V18.223H4.00114V12.001L8.44514 8.88997L12.8891 12.001L12.8901 18.223Z" fill="#ECD9CC"/>
<path d="M10.2231 4V5.751L12.0011 7.022V5.778H20.0011V18.222H16.4451V20H21.7781V4H10.2231Z" fill="#ECD9CC"/>
</svg>
