<svg width="1.5rem" height="1.5rem" viewBox="0 0 24 24" fill="none" xmlns="http://www.w3.org/2000/svg">
<path d="M6 5.77888H12C12.2501 5.79204 12.4953 5.7061 12.6825 5.53969C12.8697 5.37328 12.9838 5.13982 13 4.88988C12.9838 4.63995 12.8697 4.40648 12.6825 4.24008C12.4953 4.07367 12.2501 3.98773 12 4.00088H6C5.49951 3.97352 5.00849 4.14502 4.63388 4.47805C4.25927 4.81108 4.03144 5.27864 4 5.77888V18.2229C4.03144 18.7231 4.25927 19.1907 4.63388 19.5237C5.00849 19.8567 5.49951 20.0282 6 20.0009H12C12.2501 20.014 12.4953 19.9281 12.6825 19.7617C12.8697 19.5953 12.9838 19.3618 13 19.1119C12.9838 18.862 12.8697 18.6285 12.6825 18.4621C12.4953 18.2957 12.2501 18.2097 12 18.2229H6V5.77888Z" fill="#ECD9CC"/>
<path d="M19.859 11.6501L17.069 8.86005C16.9996 8.7881 16.9103 8.73858 16.8125 8.71788C16.7148 8.69718 16.6131 8.70625 16.5205 8.74392C16.4279 8.78159 16.3488 8.84613 16.2933 8.92922C16.2377 9.0123 16.2084 9.11012 16.209 9.21005V11.0001H9.20898C8.94377 11.0001 8.68941 11.1054 8.50188 11.2929C8.31434 11.4805 8.20898 11.7348 8.20898 12.0001C8.20898 12.2653 8.31434 12.5196 8.50188 12.7072C8.68941 12.8947 8.94377 13.0001 9.20898 13.0001H16.209V14.7901C16.2104 14.8879 16.2404 14.9832 16.2955 15.0642C16.3505 15.1451 16.4281 15.2081 16.5186 15.2454C16.6091 15.2826 16.7085 15.2925 16.8046 15.2738C16.9006 15.2551 16.9891 15.2086 17.059 15.1401L19.849 12.3501C19.896 12.305 19.9335 12.251 19.9595 12.1913C19.9854 12.1315 19.9993 12.0673 20.0002 12.0021C20.0012 11.937 19.9892 11.8724 19.9649 11.8119C19.9407 11.7515 19.9047 11.6965 19.859 11.6501Z" fill="#ECD9CC"/>
</svg>
