<svg width="24" height="24" viewBox="0 0 24 24" fill="none" xmlns="http://www.w3.org/2000/svg">
<path d="M12.0001 22.2863C17.6807 22.2863 22.2858 17.6812 22.2858 12.0006C22.2858 6.31992 17.6807 1.71484 12.0001 1.71484C6.31943 1.71484 1.71436 6.31992 1.71436 12.0006C1.71436 17.6812 6.31943 22.2863 12.0001 22.2863Z" fill="#BEB082"/>
<path d="M12.2101 11.2662C10.621 10.8727 10.1101 10.466 10.1101 9.83302C10.1101 9.10445 10.8173 8.59959 12.0001 8.59959C12.994 8.59959 13.4911 8.95959 13.6716 9.53302C13.7094 9.66594 13.7891 9.78313 13.8988 9.8672C14.0085 9.95127 14.1424 9.99774 14.2806 9.99974H14.4906C14.5947 10.0045 14.6983 9.98361 14.7925 9.93897C14.8866 9.89432 14.9683 9.82726 15.0305 9.74367C15.0927 9.66007 15.1335 9.56249 15.1492 9.45949C15.1649 9.35649 15.155 9.25121 15.1206 9.15288C14.9473 8.71798 14.6661 8.33435 14.3036 8.03812C13.9411 7.74188 13.5091 7.54279 13.0484 7.45959V6.99931C13.0351 6.72982 12.9186 6.47577 12.7232 6.28976C12.5277 6.10374 12.2682 6 11.9984 6C11.7286 6 11.4691 6.10374 11.2737 6.28976C11.0782 6.47577 10.9618 6.72982 10.9484 6.99931V7.43945C9.592 7.71931 8.5 8.55931 8.5 9.84631C8.5 11.3862 9.83714 12.1529 11.7901 12.5995C13.54 12.9993 13.8901 13.5852 13.8901 14.2062C13.8901 14.666 13.5473 15.3993 12.0001 15.3993C10.843 15.3993 10.2503 15.0059 10.0193 14.4462C9.97127 14.3171 9.8855 14.2054 9.77312 14.1258C9.66075 14.0461 9.527 14.0021 9.38929 13.9996H9.193C9.08735 13.9955 8.98232 14.0176 8.88731 14.064C8.79229 14.1104 8.71026 14.1796 8.64853 14.2654C8.5868 14.3512 8.54731 14.451 8.53358 14.5559C8.51985 14.6607 8.53231 14.7673 8.56986 14.8662C8.96886 15.7927 9.89843 16.3396 10.9497 16.553V16.9996C10.9631 17.2691 11.0795 17.5231 11.275 17.7091C11.4704 17.8952 11.7299 17.9989 11.9997 17.9989C12.2695 17.9989 12.529 17.8952 12.7245 17.7091C12.9199 17.5231 13.0364 17.2691 13.0497 16.9996V16.5663C14.4147 16.3195 15.4999 15.5665 15.4999 14.1997C15.4999 12.3063 13.7989 11.6596 12.2097 11.2666L12.2101 11.2662Z" fill="white"/>
</svg>
