<svg width="1rem" height="1.063rem" id="mr-1200-20" viewBox="0 0 16 17" fill="none" xmlns="http://www.w3.org/2000/svg">
<path d="M14.6032 5.11993L14.605 5.12121C14.8046 5.2628 14.9673 5.45017 15.0795 5.6676C15.1917 5.88504 15.2502 6.1262 15.25 6.37088V6.37144V15.478C15.2494 15.5824 15.2076 15.6823 15.1338 15.7561C15.06 15.83 14.9601 15.8717 14.8557 15.8723H11.0358V9.76559V9.01559H10.2858H5.71419H4.96419V9.76559V15.8723H1.14432C1.03995 15.8717 0.940016 15.83 0.8662 15.7561C0.792385 15.6823 0.750647 15.5824 0.750002 15.478L0.750002 6.37144L0.750001 6.37056C0.749714 6.12596 0.80804 5.88484 0.920097 5.66742C1.03215 5.44999 1.19468 5.26258 1.39406 5.12088L1.39554 5.11983L7.10693 1.03986L7.10694 1.03987L7.11052 1.03728C7.36871 0.850533 7.67925 0.75 7.9979 0.75C8.31656 0.75 8.6271 0.850533 8.88529 1.03728L8.88529 1.03729L8.88902 1.03996L14.6032 5.11993Z" stroke="#ECD9CC" stroke-width="1.5"/>
</svg>
