<svg id="logo" xmlns="http://www.w3.org/2000/svg" width="153.999" height="20" viewBox="0 0 153.999 20">
  <path id="Path_6" data-name="Path 6" d="M0,19.861C0,18.149.057,3.344,0,.325H4.175c4.433,0,6.492,2.583,6.492,5.168,0,2.9-2.745,5.806-7.779,5.05l.143-.231c3.861,0,5.606-1.946,5.606-4.616,0-2.409-1.888-4.878-6.349-4.529l-.143.174c0,5.573-.029,12.946-.029,18.519Z" transform="translate(0 -0.122)" fill="#ecd9cc"/>
  <path id="Path_7" data-name="Path 7" d="M41.734,19.861c-.829-1.423-3.6-6.154-5.12-8.824a9.493,9.493,0,0,1-2.03,0l.228-.232c3.49,0,5.577-2.351,5.577-5.109,0-2.409-1.887-4.878-6.348-4.529l-.143.174V19.861H31.724c0-1.712.057-16.517,0-19.536h4.2c4.434,0,6.492,2.583,6.492,5.168a5.082,5.082,0,0,1-3.689,5.253c1.23,2.352,3.517,5.951,5.519,9.115Z" transform="translate(-12.188 -0.122)" fill="#ecd9cc"/>
  <path id="Path_8" data-name="Path 8" d="M73.252,20c-5.72,0-10.268-3.4-10.268-9.724A10.047,10.047,0,0,1,73.223,0,9.827,9.827,0,0,1,83.348,10.1c0,6.3-4.4,9.9-10.1,9.9m7.665-9.9C80.917,5.66,78.6.9,73.195.9c-5.377,0-7.779,4.934-7.779,9.375,0,5.138,3.375,8.882,7.779,8.912,4.433.029,7.722-3.948,7.722-9.086" transform="translate(-24.199)" fill="#ecd9cc"/>
  <path id="Path_9" data-name="Path 9" d="M110.69,19.861c0-1.712.057-16.517,0-19.536h4.175c4.433,0,6.492,2.583,6.492,5.168,0,2.9-2.745,5.806-7.779,5.05l.143-.231c3.861,0,5.606-1.946,5.606-4.616,0-2.409-1.888-4.878-6.349-4.529l-.143.174c0,5.573-.029,12.946-.029,18.519Z" transform="translate(-42.527 -0.122)" fill="#ecd9cc"/>
  <path id="Path_10" data-name="Path 10" d="M141.185,16.111a4.962,4.962,0,0,0,4.89,2.96c2.346,0,4.147-1.451,4.147-3.657,0-5.544-9.037-4.064-9.037-10.594C141.185,1.626,144.044,0,146.5,0a6.932,6.932,0,0,1,4.348,1.423l-.715,1.6A3.741,3.741,0,0,0,146.419.871c-1.773,0-3.575.9-3.575,3.048,0,5.574,9.152,3.919,9.152,10.45a5.549,5.549,0,0,1-5.863,5.6,7.973,7.973,0,0,1-5.577-2Z" transform="translate(-54.002)" fill="#ecd9cc"/>
  <path id="Path_11" data-name="Path 11" d="M174.464,19.861c0-1.712.086-16.517.029-19.536h2.116c0,5.574.028,13.991.028,19.536Z" transform="translate(-67.03 -0.122)" fill="#ecd9cc"/>
  <path id="Path_12" data-name="Path 12" d="M195.182,19.861V.325h9.667l.343.929c-1.373-.174-7.894-.145-7.894-.145V9.585c1.43,0,5.034.029,6.692-.174v1.074a66.934,66.934,0,0,0-6.721-.116l.029,9.492Z" transform="translate(-74.99 -0.122)" fill="#ecd9cc"/>
  <path id="Path_13" data-name="Path 13" d="M230.9,19.861s.057-5.4,0-8.418c0,0-5.348-8.621-6.922-11.118h2.288c2.831,4.644,5.978,9.666,5.978,9.666l.058.406L239.251.325h.8l-6.979,9.986v9.549Z" transform="translate(-86.054 -0.122)" fill="#ecd9cc"/>
</svg>
