<svg width="1.5rem" height="1.5rem" viewBox="0 0 24 24" fill="none" xmlns="http://www.w3.org/2000/svg">
<path d="M17.6 8.80078H16.8V4.80078H7.2V8.80078H6.4C5.76348 8.80078 5.15303 9.05364 4.70294 9.50373C4.25286 9.95381 4 10.5643 4 11.2008V16.0008H7.2V19.2008H16.8V16.0008H20V11.2008C20 10.5643 19.7471 9.95381 19.2971 9.50373C18.847 9.05364 18.2365 8.80078 17.6 8.80078ZM8.8 6.40078H15.2V8.80078H8.8V6.40078ZM15.2 16.0008V17.6008H8.8V14.4008H15.2V16.0008ZM16.8 14.4008V12.8008H7.2V14.4008H5.6V11.2008C5.6 10.9886 5.68429 10.7851 5.83431 10.6351C5.98434 10.4851 6.18783 10.4008 6.4 10.4008H17.6C17.8122 10.4008 18.0157 10.4851 18.1657 10.6351C18.3157 10.7851 18.4 10.9886 18.4 11.2008V14.4008H16.8Z" fill="#ECD9CC"/>
<path d="M16.8 12.4008C17.2418 12.4008 17.6 12.0426 17.6 11.6008C17.6 11.159 17.2418 10.8008 16.8 10.8008C16.3582 10.8008 16 11.159 16 11.6008C16 12.0426 16.3582 12.4008 16.8 12.4008Z" fill="#ECD9CC"/>
</svg>
